# xmcd
#
# Track frame offsets:
#	150
#	18779
#	37632
#	66917
#
# Disc length: 1321 seconds
#
# Revision: 1
# Processed by: cddbd v1.5.2PL0 Copyright (c) Steve Scherf et al.
# Submitted via: audiograbber 1.83.01
#
DISCID=22052704
DTITLE=Twain, Shania - Forever and for always
DYEAR=2003
DGENRE=Country
TTITLE0=Forever and for always (Red)
TTITLE1=Man! I feel like a woman (live)
TTITLE2=Don't be stupid (live)
TTITLE3=Data
EXTD=
EXTT0=
EXTT1=
EXTT2=
EXTT3=
PLAYORDER=
